<svg xmlns="http://www.w3.org/2000/svg" viewBox="0 0 1024 769">
  <path d="M814 121h26V30L810 0H302l-29 30v77h-98l-19-34H86l-34 59 34 58h70l19-32h98v202h-98l-32-56H48L0 385l48 80h95l32-54h98v202h-98l-19-34H86l-34 59 34 58h70l19-32h98v76l29 29h508l30-29v-92h-52v70H324V51h464v70h26z"/>
  <path d="M670 613h57v51h-57zM386 613h231v51H386zM549 486H386v52h191l-28-52zM489 360h98v51h-98zM386 360h51v51h-51zM577 233H386v52h164l27-52zM521 107h206v51H521zM386 107h74v51h-74zM1022 301l2-12-27-41-12-4-49 16-75-41-9-36-10-8h-56l-9 8-9 36-75 41-49-16-12 4-27 41 2 12 34 32v104l-34 31-2 13 27 41 12 3 49-16 75 42 9 36 9 7h56l10-7 9-36 75-42 49 16 12-3 27-41-2-13-34-31V333zM909 437l-95 52-94-52V333l94-53 95 53z"/>
  <path d="M856 408v-46l-42-23-41 23v46l41 23 42-23z"/>
</svg>
