<svg xmlns="http://www.w3.org/2000/svg" viewBox="0 0 1023.991 769.463">
  <title>logo-animatable</title>
  <g>
    <rect x="121" y="612.937" width="194" height="51.2"/>
    <polygon id="bottom" points="155.595 579.291 86.442 579.291 51.865 637.806 86.442 696.32 155.595 696.32 190.171 637.806 155.595 579.291"/>
  </g>
  <g>
    <rect x="95" y="359.863" width="220" height="51.2"/>
    <polygon id="middle" points="142.629 304.274 47.543 304.274 0 384.731 47.543 465.189 142.629 465.189 190.171 384.731 142.629 304.274"/>
  </g>
  <g>
    <rect x="121" y="106.789" width="194" height="51.2"/>
    <polygon id="top" points="155.595 73.143 86.442 73.143 51.865 131.657 86.442 190.171 155.595 190.171 190.171 131.657 155.595 73.143"/>
  </g>
  <g>
    <polygon points="814.636 648.411 814.446 648.411 814.252 648.411 788.48 648.41 788.48 718.263 324.023 718.263 324.023 51.2 788.48 51.2 788.48 121.053 814.255 121.051 814.446 121.051 814.636 121.051 814.638 121.051 814.639 121.051 839.68 121.053 839.68 29.631 810.05 0 302.453 0 272.823 29.631 272.823 739.833 302.453 769.463 810.05 769.463 839.68 739.833 839.68 648.41 814.636 648.411"/>
    <g id="line-5">
      <rect x="669.989" y="612.937" width="57.051" height="51.2"/>
      <rect x="386.194" y="612.937" width="231.131" height="51.2"/>
    </g>
    <polygon id="line-4" points="549.467 486.4 386.194 486.4 386.194 537.6 577.344 537.6 549.467 486.4"/>
    <g id="line-3">
      <rect x="488.594" y="359.863" width="72" height="51.2"/>
      <rect x="386.194" y="359.863" width="51.2" height="51.2"/>
    </g>
    <polygon id="line-2" points="576.649 233.326 386.194 233.326 386.194 284.526 549.635 284.526 576.649 233.326"/>
    <g id="line-1">
      <rect x="520.777" y="106.789" width="205.897" height="51.2"/>
      <rect x="385.829" y="106.789" width="73.509" height="51.2"/>
    </g>
  </g>
  <g id="cog">
    <path d="M1150.268,556.954l1.723-12.388-.03-.046.03-.219-26.853-40.7-11.862-3.611L1064,515.84l-74.978-41.365-9.175-36.1-9.37-7.7H914.4l-9.369,7.7-9.175,36.1-74.979,41.364L771.6,499.991,759.736,503.6l-26.853,40.7.03.219-.03.046,1.723,12.388,34.42,31.587V692.332l-34.42,31.586-1.723,12.388.031.047-.031.218,26.854,40.7,11.862,3.612,49.557-15.94L895.9,806.176l9.127,35.907,9.369,7.7h56.084l9.37-7.7,9.127-35.907,74.743-41.234,49.557,15.939,11.862-3.611,26.854-40.7-.031-.219.031-.046-1.723-12.388-34.42-31.587V588.541Zm-113.2,135.575L942.437,744.8,847.8,692.529V588.1l94.633-52.268L1037.07,588.1Z" transform="translate(-128 -255.269)"/>
    <polygon points="856.289 408.137 856.289 361.951 814.437 338.834 772.584 361.95 772.584 408.137 814.437 431.253 856.289 408.137"/>
  </g>
</svg>
