<svg xmlns="http://www.w3.org/2000/svg" viewBox="0 0 1024 769">
  <path fill="#c6c5d3" d="M132 613h167v51H132z"/>
  <path fill="#a080dd" d="M156 579H86l-34 59 34 58h70l34-58-34-59z"/>
  <path fill="#c6c5d3" d="M132 360h167v51H132z"/>
  <path fill="#785da3" d="M143 304H48L0 385l48 80h95l47-80-47-81z"/>
  <g>
    <path fill="#c6c5d3" d="M132 107h167v51H132z"/>
    <path fill="#a080dd" d="M156 73H86l-34 59 34 58h70l34-58-34-59z"/>
  </g>
  <g>
    <path fill="#785da3" d="M815 648h-27v70H324V51h464v70h52V30L810 0H302l-29 30v710l29 29h508l30-29v-92h-25z"/>
    <path fill="#a080dd" d="M670 613h57v51h-57z"/>
    <path fill="#c4b3dd" d="M386 613h231v51H386z"/>
    <path fill="#a080dd" d="M549 486H386v52h191l-28-52z"/>
    <path fill="#c4b3dd" d="M489 360h98v51h-98z"/>
    <path fill="#a080dd" d="M386 360h51v51h-51zM577 233H386v52h164l27-52z"/>
    <path fill="#c4b3dd" d="M521 107h206v51H521z"/>
    <path fill="#a080dd" d="M386 107h74v51h-74z"/>
  </g>
  <g>
    <path fill="#785da3" d="M1022 301l2-12-27-41-12-4-49 16-75-41-9-36-10-8h-56l-9 8-9 36-75 41-49-16-12 4-27 41 2 12 34 32v104l-34 31-2 13 27 41 12 3 49-16 75 42 9 36 9 7h56l10-7 9-36 75-42 49 16 12-3 27-41-2-13-34-31V333zM909 437l-95 52-94-52V333l94-53 95 53z"/>
    <path fill="#a080dd" d="M856 408v-46l-42-23-41 23v46l41 23 42-23z"/>
  </g>
</svg>
