<svg xmlns="http://www.w3.org/2000/svg" viewBox="0 0 1024 769">
  <path d="M121 613h194v51H121z"/>
  <path class="bottom" d="M156 579H86l-34 59 34 58h70l34-58-34-59z"/>
  <path d="M95 360h220v51H95z"/>
  <path class="middle" d="M143 304H48L0 385l48 80h95l47-80-47-81z"/>
  <path d="M121 107h194v51H121z"/>
  <path class="top" d="M156 73H86l-34 59 34 58h70l34-58-34-59z"/>
  <g>
    <path d="M815 648h-27v70H324V51h464v70h52V30L810 0H302l-29 30v710l29 29h508l30-29v-92h-25z"/>
    <path d="M670 613h57v51h-57zM386 613h231v51H386zM549 486H386v52h191l-28-52zM489 360h98v51h-98zM386 360h51v51h-51zM577 233H386v52h164l27-52zM521 107h206v51H521zM386 107h74v51h-74z"/>
  </g>
  <g class="cog">
    <path d="M1150 557l2-12v-1l-27-40-12-4-49 16-75-42-9-36-10-7h-56l-9 7-9 36-75 42-49-16-12 4-27 40v1l2 12 34 32v103l-34 32-2 12v1l27 40 12 4 49-16 75 41 9 36 9 8h56l10-8 9-36 75-41 49 16 12-4 27-40v-1l-2-12-34-32V589zm-113 136l-95 52-94-52V588l94-52 95 52z" transform="translate(-128 -255)"/>
    <path d="M856 408v-46l-42-23-41 23v46l41 23 42-23z"/>
  </g>
</svg>
